<?xml version="1.0" standalone="no"?>
<svg viewBox="0 0 200 200" xmlns="http://www.w3.org/2000/svg">
  <path fill="#E8DAFF" d="M39.7,-47.8C54.5,-43.9,71.7,-36.4,73.9,-25.1C76.1,-13.8,63.4,1.4,54.8,14.7C46.2,28.1,41.8,39.7,33.3,49.7C24.9,59.6,12.4,67.9,-3.2,72.3C-18.9,76.8,-37.8,77.4,-46.1,67.4C-54.3,57.4,-51.9,36.7,-55.8,19.4C-59.6,2.1,-69.6,-11.9,-67.9,-23.6C-66.2,-35.3,-52.8,-44.7,-39.5,-49.2C-26.2,-53.6,-13.1,-53,-0.3,-52.5C12.4,-52,24.9,-51.7,39.7,-47.8Z" transform="translate(100 100)" />
</svg>
